<svg width="60" height="47" viewBox="0 0 60 47" fill="none" xmlns="http://www.w3.org/2000/svg">
<path d="M46.9274 40.8286H6.80452C4.23536 40.8286 2.14514 39.2738 2.14514 37.3627V13.4858C2.14514 11.5747 4.23536 10.0199 6.80452 10.0199C7.39686 10.0199 7.87708 9.66272 7.87708 9.2221C7.87708 8.78137 7.39686 8.42426 6.80452 8.42426C3.05253 8.42426 0 10.6948 0 13.4858V37.3627C0 40.1537 3.05253 42.4243 6.80452 42.4243H46.9274C47.5198 42.4243 48 42.0671 48 41.6264C48 41.1859 47.5198 40.8286 46.9274 40.8286Z" fill="#C5AC2D"/>
<path d="M54.424 5.63638H25.3027C24.8173 5.63638 24.4238 6.02978 24.4238 6.51529C24.4238 7.00068 24.8173 7.3942 25.3027 7.3942H54.424C56.5292 7.3942 58.242 9.10689 58.242 11.2122V37.5151C58.242 39.6204 56.5292 41.3331 54.424 41.3331H53.4846C52.9992 41.3331 52.6057 41.7266 52.6057 42.212C52.6057 42.6975 52.9992 43.0909 53.4846 43.0909H54.424C57.4985 43.0909 59.9999 40.5897 59.9999 37.5151V11.2122C59.9999 8.13763 57.4985 5.63638 54.424 5.63638Z" fill="#C5AC2D"/>
<path d="M9.3335 7.39418C11.9567 7.39418 14.091 9.52828 14.091 12.1516C14.091 12.637 14.4845 13.0305 14.9699 13.0305C15.4553 13.0305 15.8488 12.637 15.8488 12.1516C15.8488 9.5284 17.983 7.39418 20.6062 7.39418C21.0916 7.39418 21.4851 7.00066 21.4851 6.51527C21.4851 6.02976 21.0916 5.63637 20.6062 5.63637C17.983 5.63637 15.8488 3.50215 15.8488 0.878906C15.8488 0.393516 15.4553 0 14.9699 0C14.4845 0 14.091 0.393516 14.091 0.878906C14.091 3.50215 11.9569 5.63637 9.3335 5.63637C8.84811 5.63637 8.45459 6.02976 8.45459 6.51527C8.45459 7.00066 8.84811 7.39418 9.3335 7.39418ZM14.9699 4.14434C15.5404 5.12543 16.3597 5.94469 17.3408 6.51527C16.3597 7.08574 15.5404 7.90512 14.9699 8.88609C14.3993 7.90512 13.58 7.08574 12.599 6.51527C13.5799 5.94469 14.3993 5.12543 14.9699 4.14434Z" fill="#C5AC2D"/>
<path d="M49.727 41.3331C48.1397 41.3331 46.8484 40.0417 46.8484 38.4545C46.8484 37.9691 46.4549 37.5756 45.9695 37.5756C45.4841 37.5756 45.0906 37.9691 45.0906 38.4545C45.0906 40.0418 43.7992 41.3331 42.2119 41.3331C41.7265 41.3331 41.333 41.7266 41.333 42.212C41.333 42.6975 41.7265 43.0909 42.2119 43.0909C43.7992 43.0909 45.0906 44.3823 45.0906 45.9696C45.0906 46.455 45.4841 46.8485 45.9695 46.8485C46.4549 46.8485 46.8484 46.455 46.8484 45.9696C46.8484 44.3823 48.1398 43.0909 49.727 43.0909C50.2124 43.0909 50.6059 42.6975 50.6059 42.212C50.6059 41.7267 50.2124 41.3331 49.727 41.3331ZM45.9694 43.2563C45.679 42.8552 45.3262 42.5024 44.9252 42.212C45.3261 41.9216 45.679 41.5688 45.9694 41.1679C46.2598 41.5688 46.6127 41.9217 47.0137 42.212C46.6127 42.5024 46.2598 42.8554 45.9694 43.2563Z" fill="#C5AC2D"/>
<path d="M13.2759 15.9696C12.7905 15.9696 12.397 16.3631 12.397 16.8485V31.8661C12.397 32.2942 12.7054 32.6599 13.1273 32.7323C13.1883 32.7428 13.2767 32.758 14.907 32.758C15.6983 32.758 16.8531 32.7544 18.544 32.745C19.0294 32.7423 19.4207 32.3466 19.418 31.8612C19.4153 31.3774 19.0224 30.9872 18.5392 30.9872C18.5376 30.9872 18.5358 30.9872 18.5342 30.9872C17.2014 30.9946 15.2498 31.0021 14.1549 30.9994V16.8485C14.1548 16.3631 13.7613 15.9696 13.2759 15.9696Z" fill="#C5AC2D"/>
<path d="M37.2863 32.5972C37.4402 32.7056 37.6168 32.7578 37.7918 32.7578C38.068 32.7578 38.3399 32.6279 38.5111 32.385L43.4622 25.3567L48.4062 32.3844C48.5773 32.6277 48.8494 32.7578 49.1258 32.7578C49.3005 32.7578 49.477 32.7057 49.6308 32.5976C50.0278 32.3183 50.1232 31.77 49.8439 31.3731L44.5377 23.8302L49.0996 17.3546C49.379 16.9579 49.284 16.4095 48.8872 16.1299C48.4904 15.8503 47.9421 15.9455 47.6625 16.3423L43.4633 22.3029L39.2705 16.3427C38.9911 15.9456 38.4429 15.8503 38.0458 16.1296C37.6488 16.4088 37.5534 16.9572 37.8327 17.3541L42.3879 23.8294L37.074 31.3725C36.7945 31.7694 36.8896 32.3177 37.2863 32.5972Z" fill="#C5AC2D"/>
<g filter="url(#filter0_d)">
<path d="M24.9445 31.1131C25.9716 31.7001 27.1339 31.9984 28.3991 32H28.4096C29.5089 32 30.5375 31.7877 31.4669 31.3691C33.7783 30.3277 35 28.7078 35 26.6843V16.8376C35 16.375 34.5807 16 34.0636 16C33.5465 16 33.1272 16.375 33.1272 16.8376V26.6843C33.1272 28.0711 32.3085 29.1141 30.6245 29.8728C29.9587 30.1728 29.2135 30.3248 28.4094 30.3247C28.4067 30.3247 28.4041 30.3247 28.4015 30.3247C27.4984 30.3236 26.6745 30.1138 25.9527 29.7013C24.4948 28.8681 23.8728 27.9688 23.8728 26.6946V16.8376C23.8728 16.375 23.4535 16 22.9364 16C22.4193 16 22 16.375 22 16.8376V26.6946C22.0001 28.5355 22.9632 29.9807 24.9445 31.1131V31.1131Z" fill="#C5AC2D"/>
<path d="M28.4015 30.8247H28.4009C27.4187 30.8235 26.5082 30.5947 25.7046 30.1354C24.939 29.6978 24.3503 29.2195 23.9548 28.6478C23.5526 28.0662 23.3728 27.4209 23.3728 26.6946V16.8376C23.3728 16.7021 23.2313 16.5 22.9364 16.5C22.6415 16.5 22.5 16.7021 22.5 16.8376V26.6945C22.5 26.6945 22.5 26.6945 22.5 26.6946C22.5001 28.3109 23.3234 29.6107 25.1927 30.679L24.9525 31.0991L25.1927 30.679C26.1391 31.2199 27.215 31.4985 28.3997 31.5H28.4096C29.4438 31.5 30.4016 31.3005 31.2616 30.9132C33.4489 29.9277 34.5 28.4569 34.5 26.6843V16.8376C34.5 16.7021 34.3585 16.5 34.0636 16.5C33.7687 16.5 33.6272 16.7021 33.6272 16.8376V26.6843C33.6272 27.485 33.3878 28.2022 32.9007 28.8228C32.4203 29.4349 31.7188 29.9282 30.8299 30.3287M28.4015 30.8247H28.4094C29.2771 30.8248 30.0932 30.6606 30.8299 30.3287M28.4015 30.8247H28.4015M28.4015 30.8247H28.4015M30.8299 30.3287L30.6345 29.8949L30.8299 30.3287C30.8299 30.3287 30.8299 30.3287 30.8299 30.3287ZM28.4015 30.8247H28.4015M28.4015 30.8247H28.4015M28.4015 30.8247H28.4015M28.4015 30.8247H28.4015M28.4015 30.8247H28.4016M28.4015 30.8247H28.4016M28.4016 30.8247H28.4016M28.4016 30.8247H28.4016M28.4016 30.8247H28.4016M28.4016 30.8247H28.4016M28.4016 30.8247H28.4016M28.4016 30.8247H28.4016M28.4016 30.8247H28.4016M28.4016 30.8247H28.4016M28.4016 30.8247H28.4016M28.4016 30.8247H28.4016M28.4016 30.8247H28.4016M28.4016 30.8247H28.4016M28.4016 30.8247H28.4017M28.4016 30.8247H28.4017M28.4017 30.8247H28.4017M28.4017 30.8247H28.4017M28.4017 30.8247H28.4017M28.4017 30.8247H28.4017M28.4017 30.8247H28.4017M28.4017 30.8247H28.4017M28.4017 30.8247H28.4017M28.4017 30.8247H28.4017M28.4017 30.8247H28.4017M28.4017 30.8247H28.4017M28.4017 30.8247H28.4018M28.4017 30.8247H28.4018M28.4018 30.8247H28.4018M28.4018 30.8247H28.4018M28.4018 30.8247H28.4018M28.4018 30.8247H28.4018M28.4018 30.8247H28.4018M28.4018 30.8247H28.4018M28.4018 30.8247H28.4018M28.4018 30.8247H28.4018M28.4018 30.8247H28.4018M28.4018 30.8247H28.4018M28.4018 30.8247H28.4018M28.4018 30.8247H28.4018M28.4018 30.8247H28.4019M28.4018 30.8247H28.4019M28.4019 30.8247H28.4019M28.4019 30.8247H28.4019M28.4019 30.8247H28.4019M28.4019 30.8247H28.4019M28.4019 30.8247H28.4019M28.4019 30.8247H28.4019M28.4019 30.8247H28.4019M28.4019 30.8247H28.4019M28.4019 30.8247H28.4019M28.4019 30.8247H28.4019M28.4019 30.8247H28.402M28.4019 30.8247H28.402M28.402 30.8247H28.402M28.402 30.8247H28.402M28.402 30.8247H28.402M28.402 30.8247H28.402M28.402 30.8247H28.402M28.402 30.8247H28.402M28.402 30.8247H28.402M28.402 30.8247H28.402M28.402 30.8247H28.402M28.402 30.8247H28.402M28.402 30.8247H28.402M28.402 30.8247H28.402M28.402 30.8247H28.4021M28.402 30.8247H28.4021M28.4021 30.8247H28.4021M28.4021 30.8247H28.4021M28.4021 30.8247H28.4021M28.4021 30.8247H28.4021M28.4021 30.8247H28.4021M28.4021 30.8247H28.4021M28.4021 30.8247H28.4021M28.4021 30.8247H28.4021M28.4021 30.8247H28.4021M28.4021 30.8247H28.4021M28.4021 30.8247H28.4022M28.4021 30.8247H28.4022M28.4022 30.8247H28.4022M28.4022 30.8247H28.4022M28.4022 30.8247H28.4022M28.4022 30.8247H28.4022M28.4022 30.8247H28.4022M28.4022 30.8247H28.4022M28.4022 30.8247H28.4022M28.4022 30.8247H28.4022M28.4022 30.8247H28.4022M28.4022 30.8247H28.4022M28.4022 30.8247H28.4022M28.4022 30.8247H28.4022M28.4022 30.8247H28.4023M28.4022 30.8247H28.4023M28.4023 30.8247H28.4023M28.4023 30.8247H28.4023M28.4023 30.8247H28.4023M28.4023 30.8247H28.4023M28.4023 30.8247H28.4023M28.4023 30.8247H28.4023M28.4023 30.8247H28.4023M28.4023 30.8247H28.4023M28.4023 30.8247H28.4023M28.4023 30.8247H28.4023M28.4023 30.8247H28.4024M28.4023 30.8247H28.4024M28.4024 30.8247H28.4024M28.4024 30.8247H28.4024M28.4024 30.8247H28.4024M28.4024 30.8247H28.4024M28.4024 30.8247H28.4024M28.4024 30.8247H28.4024M28.4024 30.8247H28.4024M28.4024 30.8247H28.4024M28.4024 30.8247H28.4024M28.4024 30.8247H28.4024M28.4024 30.8247H28.4024M28.4024 30.8247H28.4024M28.4024 30.8247H28.4025M28.4024 30.8247H28.4025M28.4025 30.8247H28.4025M28.4025 30.8247H28.4025M28.4025 30.8247H28.4025M28.4025 30.8247H28.4025M28.4025 30.8247H28.4025M28.4025 30.8247H28.4025M28.4025 30.8247H28.4025M28.4025 30.8247H28.4025M28.4025 30.8247H28.4025M28.4025 30.8247H28.4025M28.4025 30.8247H28.4026M28.4025 30.8247H28.4026M28.4026 30.8247H28.4026M28.4026 30.8247H28.4026M28.4026 30.8247H28.4026M28.4026 30.8247H28.4026M28.4026 30.8247H28.4026M28.4026 30.8247H28.4026M28.4026 30.8247H28.4026M28.4026 30.8247H28.4026M28.4026 30.8247H28.4026M28.4026 30.8247H28.4026M28.4026 30.8247H28.4026M28.4026 30.8247H28.4026M28.4026 30.8247H28.4027M28.4026 30.8247H28.4027M28.4027 30.8247H28.4027M28.4027 30.8247H28.4027M28.4027 30.8247H28.4027M28.4027 30.8247H28.4027M28.4027 30.8247H28.4027M28.4027 30.8247H28.4027M28.4027 30.8247H28.4027M28.4027 30.8247H28.4027M28.4027 30.8247H28.4027M28.4027 30.8247H28.4027M28.4027 30.8247H28.4028M28.4027 30.8247H28.4028M28.4028 30.8247H28.4028M28.4028 30.8247H28.4028M28.4028 30.8247H28.4028M28.4028 30.8247H28.4028M28.4028 30.8247H28.4028M28.4028 30.8247H28.4028M28.4028 30.8247H28.4028M28.4028 30.8247H28.4028M28.4028 30.8247H28.4028M28.4028 30.8247H28.4028M28.4028 30.8247H28.4028M28.4028 30.8247H28.4028M28.4028 30.8247H28.4029M28.4028 30.8247H28.4029M28.4029 30.8247H28.4029M28.4029 30.8247H28.4029M28.4029 30.8247H28.4029M28.4029 30.8247H28.4029M28.4029 30.8247H28.4029M28.4029 30.8247H28.4029M28.4029 30.8247H28.4029M28.4029 30.8247H28.4029M28.4029 30.8247H28.4029M28.4029 30.8247H28.4029M28.4029 30.8247H28.403M28.4029 30.8247H28.403M28.403 30.8247H28.403M28.403 30.8247H28.403M28.403 30.8247H28.403M28.403 30.8247H28.403M28.403 30.8247H28.403M28.403 30.8247H28.403M28.403 30.8247H28.403M28.403 30.8247H28.403M28.403 30.8247H28.403M28.403 30.8247H28.403M28.403 30.8247H28.403M28.403 30.8247H28.403M28.403 30.8247H28.4031M28.403 30.8247H28.4031M28.4031 30.8247H28.4031M28.4031 30.8247H28.4031M28.4031 30.8247H28.4031M28.4031 30.8247H28.4031M28.4031 30.8247H28.4031M28.4031 30.8247H28.4031M28.4031 30.8247H28.4031M28.4031 30.8247H28.4031M28.4031 30.8247H28.4031M28.4031 30.8247H28.4031M28.4031 30.8247H28.4032M28.4031 30.8247H28.4032M28.4032 30.8247H28.4032M28.4032 30.8247H28.4032M28.4032 30.8247H28.4032M28.4032 30.8247H28.4032M28.4032 30.8247H28.4032M28.4032 30.8247H28.4032M28.4032 30.8247H28.4032M28.4032 30.8247H28.4032M28.4032 30.8247H28.4032M28.4032 30.8247H28.4032M28.4032 30.8247H28.4032M28.4032 30.8247H28.4032M28.4032 30.8247H28.4033M28.4032 30.8247H28.4033M28.4033 30.8247H28.4033M28.4033 30.8247H28.4033M28.4033 30.8247H28.4033M28.4033 30.8247H28.4033M28.4033 30.8247H28.4033M28.4033 30.8247H28.4033M28.4033 30.8247H28.4033M28.4033 30.8247H28.4033M28.4033 30.8247H28.4033M28.4033 30.8247H28.4033M28.4033 30.8247H28.4033M28.4033 30.8247H28.4033M28.4033 30.8247H28.4034M28.4033 30.8247H28.4034M28.4034 30.8247H28.4034M28.4034 30.8247H28.4034M28.4034 30.8247H28.4034M28.4034 30.8247H28.4034M28.4034 30.8247H28.4034M28.4034 30.8247H28.4034M28.4034 30.8247H28.4034M28.4034 30.8247H28.4034M28.4034 30.8247H28.4034M28.4034 30.8247H28.4034M28.4034 30.8247H28.4035M28.4034 30.8247H28.4035M28.4035 30.8247H28.4035M28.4035 30.8247H28.4035M28.4035 30.8247H28.4035M28.4035 30.8247H28.4035M28.4035 30.8247H28.4035M28.4035 30.8247H28.4035M28.4035 30.8247H28.4035M28.4035 30.8247H28.4035M28.4035 30.8247H28.4035M28.4035 30.8247H28.4035M28.4035 30.8247H28.4035M28.4035 30.8247H28.4035M28.4035 30.8247H28.4036M28.4035 30.8247H28.4036M28.4036 30.8247H28.4036M28.4036 30.8247H28.4036M28.4036 30.8247H28.4036M28.4036 30.8247H28.4036M28.4036 30.8247H28.4036M28.4036 30.8247H28.4036M28.4036 30.8247H28.4036M28.4036 30.8247H28.4036M28.4036 30.8247H28.4036M28.4036 30.8247H28.4036M28.4036 30.8247H28.4037M28.4036 30.8247H28.4037M28.4037 30.8247H28.4037M28.4037 30.8247H28.4037M28.4037 30.8247H28.4037M28.4037 30.8247H28.4037M28.4037 30.8247H28.4037M28.4037 30.8247H28.4037M28.4037 30.8247H28.4037M28.4037 30.8247H28.4037M28.4037 30.8247H28.4037M28.4037 30.8247H28.4037M28.4037 30.8247H28.4037M28.4037 30.8247H28.4037M28.4037 30.8247H28.4038M28.4037 30.8247H28.4038M28.4038 30.8247H28.4038M28.4038 30.8247H28.4038M28.4038 30.8247H28.4038M28.4038 30.8247H28.4038M28.4038 30.8247H28.4038M28.4038 30.8247H28.4038M28.4038 30.8247H28.4038M28.4038 30.8247H28.4038M28.4038 30.8247H28.4038M28.4038 30.8247H28.4038M28.4038 30.8247H28.4039M28.4038 30.8247H28.4039M28.4039 30.8247H28.4039M28.4039 30.8247H28.4039M28.4039 30.8247H28.4039M28.4039 30.8247H28.4039M28.4039 30.8247H28.4039M28.4039 30.8247H28.4039M28.4039 30.8247H28.4039M28.4039 30.8247H28.4039M28.4039 30.8247H28.4039M28.4039 30.8247H28.4039M28.4039 30.8247H28.4039M28.4039 30.8247H28.4039M28.4039 30.8247H28.404M28.4039 30.8247H28.404M28.404 30.8247H28.404M28.404 30.8247H28.404M28.404 30.8247H28.404M28.404 30.8247H28.404M28.404 30.8247H28.404M28.404 30.8247H28.404M28.404 30.8247H28.404M28.404 30.8247H28.404M28.404 30.8247H28.404M28.404 30.8247H28.404M28.404 30.8247H28.4041M28.404 30.8247H28.4041M28.4041 30.8247H28.4041M28.4041 30.8247H28.4041M28.4041 30.8247H28.4041M28.4041 30.8247H28.4041M28.4041 30.8247H28.4041M28.4041 30.8247H28.4041M28.4041 30.8247H28.4041M28.4041 30.8247H28.4041M28.4041 30.8247H28.4041M28.4041 30.8247H28.4041M28.4041 30.8247H28.4041M28.4041 30.8247H28.4041M28.4041 30.8247H28.4042M28.4041 30.8247H28.4042M28.4042 30.8247H28.4042M28.4042 30.8247H28.4042M28.4042 30.8247H28.4042M28.4042 30.8247H28.4042M28.4042 30.8247H28.4042M28.4042 30.8247H28.4042M28.4042 30.8247H28.4042M28.4042 30.8247H28.4042M28.4042 30.8247H28.4042M28.4042 30.8247H28.4042M28.4042 30.8247H28.4043M28.4042 30.8247H28.4043M28.4043 30.8247H28.4043M28.4043 30.8247H28.4043M28.4043 30.8247H28.4043M28.4043 30.8247H28.4043M28.4043 30.8247H28.4043M28.4043 30.8247H28.4043M28.4043 30.8247H28.4043M28.4043 30.8247H28.4043M28.4043 30.8247H28.4043M28.4043 30.8247H28.4043M28.4043 30.8247H28.4043M28.4043 30.8247H28.4043M28.4043 30.8247H28.4044M28.4043 30.8247H28.4044M28.4044 30.8247H28.4044M28.4044 30.8247H28.4044M28.4044 30.8247H28.4044M28.4044 30.8247H28.4044M28.4044 30.8247H28.4044M28.4044 30.8247H28.4044M28.4044 30.8247H28.4044M28.4044 30.8247H28.4044M28.4044 30.8247H28.4044M28.4044 30.8247H28.4044M28.4044 30.8247H28.4045M28.4044 30.8247H28.4045M28.4045 30.8247H28.4045M28.4045 30.8247H28.4045M28.4045 30.8247H28.4045M28.4045 30.8247H28.4045M28.4045 30.8247H28.4045M28.4045 30.8247H28.4045M28.4045 30.8247H28.4045M28.4045 30.8247H28.4045M28.4045 30.8247H28.4045M28.4045 30.8247H28.4045M28.4045 30.8247H28.4045M28.4045 30.8247H28.4045M28.4045 30.8247H28.4046M28.4045 30.8247H28.4046M28.4046 30.8247H28.4046M28.4046 30.8247H28.4046M28.4046 30.8247H28.4046M28.4046 30.8247H28.4046M28.4046 30.8247H28.4046M28.4046 30.8247H28.4046M28.4046 30.8247H28.4046M28.4046 30.8247H28.4046M28.4046 30.8247H28.4046M28.4046 30.8247H28.4046M28.4046 30.8247H28.4047M28.4046 30.8247H28.4047M28.4047 30.8247H28.4047M28.4047 30.8247H28.4047M28.4047 30.8247H28.4047M28.4047 30.8247H28.4047M28.4047 30.8247H28.4047M28.4047 30.8247H28.4047M28.4047 30.8247H28.4047M28.4047 30.8247H28.4047M28.4047 30.8247H28.4047M28.4047 30.8247H28.4047M28.4047 30.8247H28.4047M28.4047 30.8247H28.4047M28.4047 30.8247H28.4048M28.4047 30.8247H28.4048M28.4048 30.8247H28.4048M28.4048 30.8247H28.4048M28.4048 30.8247H28.4048M28.4048 30.8247H28.4048M28.4048 30.8247H28.4048M28.4048 30.8247H28.4048M28.4048 30.8247H28.4048M28.4048 30.8247H28.4048M28.4048 30.8247H28.4048M28.4048 30.8247H28.4048M28.4048 30.8247H28.4049M28.4048 30.8247H28.4049M28.4049 30.8247H28.4049M28.4049 30.8247H28.4049M28.4049 30.8247H28.4049M28.4049 30.8247H28.4049M28.4049 30.8247H28.4049M28.4049 30.8247H28.4049M28.4049 30.8247H28.4049M28.4049 30.8247H28.4049M28.4049 30.8247H28.4049M28.4049 30.8247H28.4049M28.4049 30.8247H28.4049M28.4049 30.8247H28.4049M28.4049 30.8247H28.405M28.4049 30.8247H28.405M28.405 30.8247H28.405M28.405 30.8247H28.405M28.405 30.8247H28.405M28.405 30.8247H28.405M28.405 30.8247H28.405M28.405 30.8247H28.405M28.405 30.8247H28.405M28.405 30.8247H28.405M28.405 30.8247H28.405M28.405 30.8247H28.405M28.405 30.8247H28.4051M28.405 30.8247H28.4051M28.4051 30.8247H28.4051M28.4051 30.8247H28.4051M28.4051 30.8247H28.4051M28.4051 30.8247H28.4051M28.4051 30.8247H28.4051M28.4051 30.8247H28.4051M28.4051 30.8247H28.4051M28.4051 30.8247H28.4051M28.4051 30.8247H28.4051M28.4051 30.8247H28.4051M28.4051 30.8247H28.4051M28.4051 30.8247H28.4051M28.4051 30.8247H28.4052M28.4051 30.8247H28.4052M28.4052 30.8247H28.4052M28.4052 30.8247H28.4052M28.4052 30.8247H28.4052M28.4052 30.8247H28.4052M28.4052 30.8247H28.4052M28.4052 30.8247H28.4052M28.4052 30.8247H28.4052M28.4052 30.8247H28.4052M28.4052 30.8247H28.4052M28.4052 30.8247H28.4052M28.4052 30.8247H28.4053M28.4052 30.8247H28.4053M28.4053 30.8247H28.4053M28.4053 30.8247H28.4053M28.4053 30.8247H28.4053M28.4053 30.8247H28.4053M28.4053 30.8247H28.4053M28.4053 30.8247H28.4053M28.4053 30.8247H28.4053M28.4053 30.8247H28.4053M28.4053 30.8247H28.4053M28.4053 30.8247H28.4053M28.4053 30.8247H28.4053M28.4053 30.8247H28.4053M28.4053 30.8247H28.4054M28.4053 30.8247H28.4054M28.4054 30.8247H28.4054M28.4054 30.8247H28.4054M28.4054 30.8247H28.4054M28.4054 30.8247H28.4054M28.4054 30.8247H28.4054M28.4054 30.8247H28.4054M28.4054 30.8247H28.4054M28.4054 30.8247H28.4054M28.4054 30.8247H28.4054M28.4054 30.8247H28.4054M28.4054 30.8247H28.4055M28.4054 30.8247H28.4055M28.4055 30.8247H28.4055M28.4055 30.8247H28.4055M28.4055 30.8247H28.4055M28.4055 30.8247H28.4055M28.4055 30.8247H28.4055M28.4055 30.8247H28.4055M28.4055 30.8247H28.4055M28.4055 30.8247H28.4055M28.4055 30.8247H28.4055M28.4055 30.8247H28.4055M28.4055 30.8247H28.4055M28.4055 30.8247H28.4055M28.4055 30.8247H28.4056M28.4055 30.8247H28.4056M28.4056 30.8247H28.4056M28.4056 30.8247H28.4056M28.4056 30.8247H28.4056M28.4056 30.8247H28.4056M28.4056 30.8247H28.4056M28.4056 30.8247H28.4056M28.4056 30.8247H28.4056M28.4056 30.8247H28.4056M28.4056 30.8247H28.4056M28.4056 30.8247H28.4056M28.4056 30.8247H28.4057M28.4056 30.8247H28.4057M28.4057 30.8247H28.4057M28.4057 30.8247H28.4057M28.4057 30.8247H28.4057M28.4057 30.8247H28.4057M28.4057 30.8247H28.4057M28.4057 30.8247H28.4057M28.4057 30.8247H28.4057M28.4057 30.8247H28.4057M28.4057 30.8247H28.4057M28.4057 30.8247H28.4057M28.4057 30.8247H28.4057M28.4057 30.8247H28.4057M28.4057 30.8247H28.4058M28.4057 30.8247H28.4058M28.4058 30.8247H28.4058M28.4058 30.8247H28.4058M28.4058 30.8247H28.4058M28.4058 30.8247H28.4058M28.4058 30.8247H28.4058M28.4058 30.8247H28.4058M28.4058 30.8247H28.4058M28.4058 30.8247H28.4058M28.4058 30.8247H28.4058M28.4058 30.8247H28.4058M28.4058 30.8247H28.4059M28.4058 30.8247H28.4059M28.4059 30.8247H28.4059M28.4059 30.8247H28.4059M28.4059 30.8247H28.4059M28.4059 30.8247H28.4059M28.4059 30.8247H28.4059M28.4059 30.8247H28.4059M28.4059 30.8247H28.4059M28.4059 30.8247H28.4059M28.4059 30.8247H28.4059M28.4059 30.8247H28.4059M28.4059 30.8247H28.4059M28.4059 30.8247H28.4059M28.4059 30.8247H28.406M28.4059 30.8247H28.406M28.406 30.8247H28.406M28.406 30.8247H28.406M28.406 30.8247H28.406M28.406 30.8247H28.406M28.406 30.8247H28.406M28.406 30.8247H28.406M28.406 30.8247H28.406M28.406 30.8247H28.406M28.406 30.8247H28.406M28.406 30.8247H28.406M28.406 30.8247H28.4061M28.406 30.8247H28.4061M28.4061 30.8247H28.4061M28.4061 30.8247H28.4061M28.4061 30.8247H28.4061M28.4061 30.8247H28.4061M28.4061 30.8247H28.4061M28.4061 30.8247H28.4061M28.4061 30.8247H28.4061M28.4061 30.8247H28.4061M28.4061 30.8247H28.4061M28.4061 30.8247H28.4061M28.4061 30.8247H28.4061M28.4061 30.8247H28.4061M28.4061 30.8247H28.4062M28.4061 30.8247H28.4062M28.4062 30.8247H28.4062M28.4062 30.8247H28.4062M28.4062 30.8247H28.4062M28.4062 30.8247H28.4062M28.4062 30.8247H28.4062M28.4062 30.8247H28.4062M28.4062 30.8247H28.4062M28.4062 30.8247H28.4062M28.4062 30.8247H28.4062M28.4062 30.8247H28.4062M28.4062 30.8247H28.4063M28.4062 30.8247H28.4063M28.4063 30.8247H28.4063M28.4063 30.8247H28.4063M28.4063 30.8247H28.4063M28.4063 30.8247H28.4063M28.4063 30.8247H28.4063M28.4063 30.8247H28.4063M28.4063 30.8247H28.4063M28.4063 30.8247H28.4063M28.4063 30.8247H28.4063M28.4063 30.8247H28.4063M28.4063 30.8247H28.4063M28.4063 30.8247H28.4063M28.4063 30.8247H28.4064M28.4063 30.8247H28.4064M28.4064 30.8247H28.4064M28.4064 30.8247H28.4064M28.4064 30.8247H28.4064M28.4064 30.8247H28.4064M28.4064 30.8247H28.4064M28.4064 30.8247H28.4064M28.4064 30.8247H28.4064M28.4064 30.8247H28.4064M28.4064 30.8247H28.4064M28.4064 30.8247H28.4064M28.4064 30.8247H28.4065M28.4064 30.8247H28.4065M28.4065 30.8247H28.4065M28.4065 30.8247H28.4065M28.4065 30.8247H28.4065M28.4065 30.8247H28.4065M28.4065 30.8247H28.4065M28.4065 30.8247H28.4065M28.4065 30.8247H28.4065M28.4065 30.8247H28.4065M28.4065 30.8247H28.4065M28.4065 30.8247H28.4065M28.4065 30.8247H28.4065M28.4065 30.8247H28.4065M28.4065 30.8247H28.4066M28.4065 30.8247H28.4066M28.4066 30.8247H28.4066M28.4066 30.8247H28.4066M28.4066 30.8247H28.4066M28.4066 30.8247H28.4066M28.4066 30.8247H28.4066M28.4066 30.8247H28.4066M28.4066 30.8247H28.4066M28.4066 30.8247H28.4066M28.4066 30.8247H28.4066M28.4066 30.8247H28.4066M28.4066 30.8247H28.4067M28.4066 30.8247H28.4067M28.4067 30.8247H28.4067M28.4067 30.8247H28.4067M28.4067 30.8247H28.4067M28.4067 30.8247H28.4067M28.4067 30.8247H28.4067M28.4067 30.8247H28.4067M28.4067 30.8247H28.4067M28.4067 30.8247H28.4067M28.4067 30.8247H28.4067M28.4067 30.8247H28.4067M28.4067 30.8247H28.4067M28.4067 30.8247H28.4067M28.4067 30.8247H28.4068M28.4067 30.8247H28.4068M28.4068 30.8247H28.4068M28.4068 30.8247H28.4068M28.4068 30.8247H28.4068M28.4068 30.8247H28.4068M28.4068 30.8247H28.4068M28.4068 30.8247H28.4068M28.4068 30.8247H28.4068M28.4068 30.8247H28.4068M28.4068 30.8247H28.4068M28.4068 30.8247H28.4068M28.4068 30.8247H28.4069M28.4068 30.8247H28.4069M28.4069 30.8247H28.4069M28.4069 30.8247H28.4069M28.4069 30.8247H28.4069M28.4069 30.8247H28.4069M28.4069 30.8247H28.4069M28.4069 30.8247H28.4069M28.4069 30.8247H28.4069M28.4069 30.8247H28.4069M28.4069 30.8247H28.4069M28.4069 30.8247H28.4069M28.4069 30.8247H28.4069M28.4069 30.8247H28.4069M28.4069 30.8247H28.407M28.4069 30.8247H28.407M28.407 30.8247H28.407M28.407 30.8247H28.407M28.407 30.8247H28.407M28.407 30.8247H28.407M28.407 30.8247H28.407M28.407 30.8247H28.407M28.407 30.8247H28.407M28.407 30.8247H28.407M28.407 30.8247H28.407M28.407 30.8247H28.407M28.407 30.8247H28.4071M28.407 30.8247H28.4071M28.4071 30.8247H28.4071M28.4071 30.8247H28.4071M28.4071 30.8247H28.4071M28.4071 30.8247H28.4071M28.4071 30.8247H28.4071M28.4071 30.8247H28.4071M28.4071 30.8247H28.4071M28.4071 30.8247H28.4071M28.4071 30.8247H28.4071M28.4071 30.8247H28.4071M28.4071 30.8247H28.4071M28.4071 30.8247H28.4071M28.4071 30.8247H28.4072M28.4071 30.8247H28.4072M28.4072 30.8247H28.4072M28.4072 30.8247H28.4072M28.4072 30.8247H28.4072M28.4072 30.8247H28.4072M28.4072 30.8247H28.4072M28.4072 30.8247H28.4072M28.4072 30.8247H28.4072M28.4072 30.8247H28.4072M28.4072 30.8247H28.4072M28.4072 30.8247H28.4072M28.4072 30.8247H28.4073M28.4072 30.8247H28.4073M28.4073 30.8247H28.4073M28.4073 30.8247H28.4073M28.4073 30.8247H28.4073M28.4073 30.8247H28.4073M28.4073 30.8247H28.4073M28.4073 30.8247H28.4073M28.4073 30.8247H28.4073M28.4073 30.8247H28.4073M28.4073 30.8247H28.4073M28.4073 30.8247H28.4073M28.4073 30.8247H28.4073M28.4073 30.8247H28.4073M28.4073 30.8247H28.4074M28.4073 30.8247H28.4074M28.4074 30.8247H28.4074M28.4074 30.8247H28.4074M28.4074 30.8247H28.4074M28.4074 30.8247H28.4074M28.4074 30.8247H28.4074M28.4074 30.8247H28.4074M28.4074 30.8247H28.4074M28.4074 30.8247H28.4074M28.4074 30.8247H28.4074M28.4074 30.8247H28.4074M28.4074 30.8247H28.4075M28.4074 30.8247H28.4075M28.4075 30.8247H28.4075M28.4075 30.8247H28.4075M28.4075 30.8247H28.4075M28.4075 30.8247H28.4075M28.4075 30.8247H28.4075M28.4075 30.8247H28.4075M28.4075 30.8247H28.4075M28.4075 30.8247H28.4075M28.4075 30.8247H28.4075M28.4075 30.8247H28.4075M28.4075 30.8247H28.4075M28.4075 30.8247H28.4075M28.4075 30.8247H28.4076M28.4075 30.8247H28.4076M28.4076 30.8247H28.4076M28.4076 30.8247H28.4076M28.4076 30.8247H28.4076M28.4076 30.8247H28.4076M28.4076 30.8247H28.4076M28.4076 30.8247H28.4076M28.4076 30.8247H28.4076M28.4076 30.8247H28.4076M28.4076 30.8247H28.4076M28.4076 30.8247H28.4076M28.4076 30.8247H28.4077M28.4076 30.8247H28.4077M28.4077 30.8247H28.4077M28.4077 30.8247H28.4077M28.4077 30.8247H28.4077M28.4077 30.8247H28.4077M28.4077 30.8247H28.4077M28.4077 30.8247H28.4077M28.4077 30.8247H28.4077M28.4077 30.8247H28.4077M28.4077 30.8247H28.4077M28.4077 30.8247H28.4077M28.4077 30.8247H28.4077M28.4077 30.8247H28.4077M28.4077 30.8247H28.4078M28.4077 30.8247H28.4078M28.4078 30.8247H28.4078M28.4078 30.8247H28.4078M28.4078 30.8247H28.4078M28.4078 30.8247H28.4078M28.4078 30.8247H28.4078M28.4078 30.8247H28.4078M28.4078 30.8247H28.4078M28.4078 30.8247H28.4078M28.4078 30.8247H28.4078M28.4078 30.8247H28.4078M28.4078 30.8247H28.4079M28.4078 30.8247H28.4079M28.4079 30.8247H28.4079M28.4079 30.8247H28.4079M28.4079 30.8247H28.4079M28.4079 30.8247H28.4079M28.4079 30.8247H28.4079M28.4079 30.8247H28.4079M28.4079 30.8247H28.4079M28.4079 30.8247H28.4079M28.4079 30.8247H28.4079M28.4079 30.8247H28.4079M28.4079 30.8247H28.4079M28.4079 30.8247H28.4079M28.4079 30.8247H28.408M28.4079 30.8247H28.408M28.408 30.8247H28.408M28.408 30.8247H28.408M28.408 30.8247H28.408M28.408 30.8247H28.408M28.408 30.8247H28.408M28.408 30.8247H28.408M28.408 30.8247H28.408M28.408 30.8247H28.408M28.408 30.8247H28.408M28.408 30.8247H28.408M28.408 30.8247H28.4081M28.408 30.8247H28.4081M28.4081 30.8247H28.4081M28.4081 30.8247H28.4081M28.4081 30.8247H28.4081M28.4081 30.8247H28.4081M28.4081 30.8247H28.4081M28.4081 30.8247H28.4081M28.4081 30.8247H28.4081M28.4081 30.8247H28.4081M28.4081 30.8247H28.4081M28.4081 30.8247H28.4081M28.4081 30.8247H28.4081M28.4081 30.8247H28.4081M28.4081 30.8247H28.4082M28.4081 30.8247H28.4082M28.4082 30.8247H28.4082M28.4082 30.8247H28.4082M28.4082 30.8247H28.4082M28.4082 30.8247H28.4082M28.4082 30.8247H28.4082M28.4082 30.8247H28.4082M28.4082 30.8247H28.4082M28.4082 30.8247H28.4082M28.4082 30.8247H28.4082M28.4082 30.8247H28.4082M28.4082 30.8247H28.4082M28.4082 30.8247H28.4082M28.4082 30.8247H28.4083M28.4082 30.8247H28.4083M28.4083 30.8247H28.4083M28.4083 30.8247H28.4083M28.4083 30.8247H28.4083M28.4083 30.8247H28.4083M28.4083 30.8247H28.4083M28.4083 30.8247H28.4083M28.4083 30.8247H28.4083M28.4083 30.8247H28.4083M28.4083 30.8247H28.4083M28.4083 30.8247H28.4083M28.4083 30.8247H28.4084M28.4083 30.8247H28.4084M28.4084 30.8247H28.4084M28.4084 30.8247H28.4084M28.4084 30.8247H28.4084M28.4084 30.8247H28.4084M28.4084 30.8247H28.4084M28.4084 30.8247H28.4084M28.4084 30.8247H28.4084M28.4084 30.8247H28.4084M28.4084 30.8247H28.4084M28.4084 30.8247H28.4084M28.4084 30.8247H28.4084M28.4084 30.8247H28.4084M28.4084 30.8247H28.4085M28.4084 30.8247H28.4085M28.4085 30.8247H28.4085M28.4085 30.8247H28.4085M28.4085 30.8247H28.4085M28.4085 30.8247H28.4085M28.4085 30.8247H28.4085M28.4085 30.8247H28.4085M28.4085 30.8247H28.4085M28.4085 30.8247H28.4085M28.4085 30.8247H28.4085M28.4085 30.8247H28.4085M28.4085 30.8247H28.4086M28.4085 30.8247H28.4086M28.4086 30.8247H28.4086M28.4086 30.8247H28.4086M28.4086 30.8247H28.4086M28.4086 30.8247H28.4086M28.4086 30.8247H28.4086M28.4086 30.8247H28.4086M28.4086 30.8247H28.4086M28.4086 30.8247H28.4086M28.4086 30.8247H28.4086M28.4086 30.8247H28.4086M28.4086 30.8247H28.4086M28.4086 30.8247H28.4086M28.4086 30.8247H28.4087M28.4086 30.8247H28.4087M28.4087 30.8247H28.4087M28.4087 30.8247H28.4087M28.4087 30.8247H28.4087M28.4087 30.8247H28.4087M28.4087 30.8247H28.4087M28.4087 30.8247H28.4087M28.4087 30.8247H28.4087M28.4087 30.8247H28.4087M28.4087 30.8247H28.4087M28.4087 30.8247H28.4087M28.4087 30.8247H28.4088M28.4087 30.8247H28.4088M28.4088 30.8247H28.4088M28.4088 30.8247H28.4088M28.4088 30.8247H28.4088M28.4088 30.8247H28.4088M28.4088 30.8247H28.4088M28.4088 30.8247H28.4088M28.4088 30.8247H28.4088M28.4088 30.8247H28.4088M28.4088 30.8247H28.4088M28.4088 30.8247H28.4088M28.4088 30.8247H28.4088M28.4088 30.8247H28.4088M28.4088 30.8247H28.4089M28.4088 30.8247H28.4089M28.4089 30.8247H28.4089M28.4089 30.8247H28.4089M28.4089 30.8247H28.4089M28.4089 30.8247H28.4089M28.4089 30.8247H28.4089M28.4089 30.8247H28.4089M28.4089 30.8247H28.4089M28.4089 30.8247H28.4089M28.4089 30.8247H28.4089M28.4089 30.8247H28.4089M28.4089 30.8247H28.409M28.4089 30.8247H28.409M28.409 30.8247H28.409M28.409 30.8247H28.409M28.409 30.8247H28.409M28.409 30.8247H28.409M28.409 30.8247H28.409M28.409 30.8247H28.409M28.409 30.8247H28.409M28.409 30.8247H28.409M28.409 30.8247H28.409M28.409 30.8247H28.409M28.409 30.8247H28.409M28.409 30.8247H28.409M28.409 30.8247H28.4091M28.409 30.8247H28.4091M28.4091 30.8247H28.4091M28.4091 30.8247H28.4091M28.4091 30.8247H28.4091M28.4091 30.8247H28.4091M28.4091 30.8247H28.4091M28.4091 30.8247H28.4091M28.4091 30.8247H28.4091M28.4091 30.8247H28.4091M28.4091 30.8247H28.4091M28.4091 30.8247H28.4091M28.4091 30.8247H28.4092M28.4091 30.8247H28.4092M28.4092 30.8247H28.4092M28.4092 30.8247H28.4092M28.4092 30.8247H28.4092M28.4092 30.8247H28.4092M28.4092 30.8247H28.4092M28.4092 30.8247H28.4092M28.4092 30.8247H28.4092M28.4092 30.8247H28.4092M28.4092 30.8247H28.4092M28.4092 30.8247H28.4092M28.4092 30.8247H28.4092M28.4092 30.8247H28.4092M28.4092 30.8247H28.4093M28.4092 30.8247H28.4093M28.4093 30.8247H28.4093H28.4093Z" stroke="#FFD600"/>
</g>
<defs>
<filter id="filter0_d" x="18" y="16" width="21" height="24" filterUnits="userSpaceOnUse" color-interpolation-filters="sRGB">
<feFlood flood-opacity="0" result="BackgroundImageFix"/>
<feColorMatrix in="SourceAlpha" type="matrix" values="0 0 0 0 0 0 0 0 0 0 0 0 0 0 0 0 0 0 127 0"/>
<feOffset dy="4"/>
<feGaussianBlur stdDeviation="2"/>
<feColorMatrix type="matrix" values="0 0 0 0 0 0 0 0 0 0 0 0 0 0 0 0 0 0 0.25 0"/>
<feBlend mode="normal" in2="BackgroundImageFix" result="effect1_dropShadow"/>
<feBlend mode="normal" in="SourceGraphic" in2="effect1_dropShadow" result="shape"/>
</filter>
</defs>
</svg>
